<svg width="30" height="30" viewBox="0 0 30 30" fill="none" xmlns="http://www.w3.org/2000/svg">
<path d="M15.0011 0C10.9273 0 10.416 0.0178128 8.81603 0.0906253C7.21914 0.16375 6.12913 0.416563 5.17537 0.7875C4.18879 1.17063 3.35191 1.68313 2.51815 2.51719C1.68377 3.35094 1.17126 4.18781 0.786883 5.17406C0.415004 6.12812 0.161877 7.21844 0.090001 8.81469C0.0187502 10.4147 0 10.9262 0 15C0 19.0737 0.0181255 19.5834 0.0906262 21.1834C0.164065 22.7803 0.41688 23.8703 0.787508 24.8241C1.17095 25.8106 1.68346 26.6475 2.51753 27.4813C3.35097 28.3156 4.18786 28.8294 5.1738 29.2125C6.12819 29.5834 7.21851 29.8363 8.81509 29.9094C10.4151 29.9822 10.9261 30 14.9995 30C19.0736 30 19.5833 29.9822 21.1833 29.9094C22.7802 29.8363 23.8715 29.5834 24.8259 29.2125C25.8121 28.8294 26.6478 28.3156 27.4812 27.4813C28.3156 26.6475 28.8281 25.8106 29.2125 24.8244C29.5812 23.8703 29.8344 22.78 29.9094 21.1838C29.9813 19.5837 30 19.0737 30 15C30 10.9262 29.9813 10.415 29.9094 8.815C29.8344 7.21812 29.5812 6.12812 29.2125 5.17437C28.8281 4.18781 28.3156 3.35094 27.4812 2.51719C26.6468 1.68281 25.8125 1.17031 24.825 0.7875C23.8687 0.416563 22.7781 0.16375 21.1812 0.0906253C19.5811 0.0178128 19.0718 0 14.9967 0H15.0011ZM13.6555 2.70312C14.0548 2.7025 14.5005 2.70312 15.0011 2.70312C19.0061 2.70312 19.4808 2.7175 21.0624 2.78938C22.5249 2.85625 23.3187 3.10063 23.8474 3.30594C24.5474 3.57781 25.0465 3.90281 25.5712 4.42781C26.0962 4.95281 26.4212 5.45281 26.6937 6.15281C26.899 6.68094 27.1437 7.47469 27.2103 8.93719C27.2822 10.5184 27.2978 10.9934 27.2978 14.9966C27.2978 18.9997 27.2822 19.4747 27.2103 21.0559C27.1434 22.5184 26.899 23.3122 26.6937 23.8403C26.4218 24.5403 26.0962 25.0388 25.5712 25.5634C25.0462 26.0884 24.5478 26.4134 23.8474 26.6853C23.3193 26.8916 22.5249 27.1353 21.0624 27.2022C19.4811 27.2741 19.0061 27.2897 15.0011 27.2897C10.9957 27.2897 10.521 27.2741 8.93978 27.2022C7.47727 27.1347 6.68351 26.8903 6.15444 26.685C5.45443 26.4131 4.95443 26.0881 4.42942 25.5631C3.90442 25.0381 3.57941 24.5394 3.30691 23.8391C3.1016 23.3109 2.85691 22.5172 2.79034 21.0547C2.71847 19.4734 2.70409 18.9984 2.70409 14.9928C2.70409 10.9872 2.71847 10.5147 2.79034 8.93344C2.85722 7.47094 3.1016 6.67719 3.30691 6.14844C3.57879 5.44844 3.90442 4.94844 4.42942 4.42344C4.95443 3.89844 5.45443 3.57344 6.15444 3.30094C6.6832 3.09469 7.47727 2.85094 8.93978 2.78375C10.3235 2.72125 10.8598 2.7025 13.6555 2.69938V2.70312Z" fill="white"/>
<path d="M22.9758 5.1569C22.6198 5.1569 22.2717 5.26249 21.9757 5.4603C21.6797 5.65812 21.449 5.93927 21.3127 6.26822C21.1765 6.59716 21.1409 6.95911 21.2104 7.3083C21.2799 7.65748 21.4514 7.97821 21.7032 8.22992C21.955 8.48163 22.2758 8.65301 22.625 8.72239C22.9742 8.79178 23.3362 8.75604 23.6651 8.61971C23.994 8.48337 24.275 8.25257 24.4728 7.95648C24.6705 7.66038 24.7759 7.31231 24.7758 6.95628C24.7758 5.96253 23.9696 5.1569 22.9758 5.1569Z" fill="white"/>
<path fill-rule="evenodd" clip-rule="evenodd" d="M14.9688 7.26003C10.7147 7.26003 7.26563 10.7091 7.26563 14.9632C7.26563 19.2172 10.7147 22.6647 14.9688 22.6647C19.2229 22.6647 22.6711 19.2172 22.6711 14.9632C22.6711 10.7091 19.2229 7.26003 14.9688 7.26003ZM15 19.9219C17.7183 19.9219 19.9219 17.7183 19.9219 15C19.9219 12.2818 17.7183 10.0782 15 10.0782C12.2817 10.0782 10.0781 12.2818 10.0781 15C10.0781 17.7183 12.2817 19.9219 15 19.9219Z" fill="white"/>
</svg>
