<svg width="199" height="36" viewBox="0 0 199 36" fill="none" xmlns="http://www.w3.org/2000/svg">
<g clip-path="url(#clip0_50_212)">
<path d="M14.1639 3.99846L20.9998 11.2641L27.8358 3.99846H14.1639ZM30.9921 6.11566L25.3358 12.1235H35.414L30.9921 6.11566ZM34.8983 15.8735H20.9998H7.10132L20.9998 31.2095L34.8983 15.8735ZM6.58569 12.1235H16.6639L11.0076 6.11566L6.58569 12.1235ZM40.5155 15.2563L22.3905 35.2564C22.0389 35.6471 21.5311 35.8736 20.9998 35.8736C20.4686 35.8736 19.9686 35.6471 19.6092 35.2564L1.4841 15.2563C0.882536 14.5923 0.835661 13.6001 1.36691 12.8813L10.117 1.00626C10.4685 0.529695 11.031 0.240631 11.6248 0.240631H30.3749C30.9686 0.240631 31.5311 0.521883 31.8827 1.00626L40.6327 12.8813C41.164 13.6001 41.1093 14.5923 40.5155 15.2563Z" fill="#DF617F"/>
</g>
<path d="M55.872 26.74C54.8 26.74 53.808 26.532 52.896 26.116C52 25.7 51.264 25.1 50.688 24.316L52.464 22.18C52.928 22.82 53.432 23.3 53.976 23.62C54.536 23.94 55.144 24.1 55.8 24.1C57.544 24.1 58.416 23.068 58.416 21.004V12.316H52.44V9.7H61.536V20.836C61.536 22.82 61.048 24.3 60.072 25.276C59.112 26.252 57.712 26.74 55.872 26.74ZM72.1282 26.668C70.7042 26.668 69.4562 26.388 68.3842 25.828C67.3282 25.252 66.5042 24.468 65.9122 23.476C65.3362 22.484 65.0482 21.356 65.0482 20.092C65.0482 18.812 65.3282 17.684 65.8882 16.708C66.4642 15.716 67.2482 14.94 68.2402 14.38C69.2482 13.82 70.3922 13.54 71.6722 13.54C72.9202 13.54 74.0322 13.812 75.0082 14.356C75.9842 14.9 76.7522 15.668 77.3123 16.66C77.8723 17.652 78.1523 18.82 78.1523 20.164C78.1523 20.292 78.1443 20.436 78.1282 20.596C78.1282 20.756 78.1202 20.908 78.1042 21.052H67.4242V19.06H76.5203L75.3442 19.684C75.3602 18.948 75.2083 18.3 74.8882 17.74C74.5683 17.18 74.1283 16.74 73.5682 16.42C73.0243 16.1 72.3923 15.94 71.6722 15.94C70.9362 15.94 70.2882 16.1 69.7282 16.42C69.1842 16.74 68.7522 17.188 68.4322 17.764C68.1282 18.324 67.9762 18.988 67.9762 19.756V20.236C67.9762 21.004 68.1522 21.684 68.5042 22.276C68.8562 22.868 69.3522 23.324 69.9922 23.644C70.6322 23.964 71.3682 24.124 72.2003 24.124C72.9202 24.124 73.5682 24.012 74.1443 23.788C74.7202 23.564 75.2322 23.212 75.6803 22.732L77.2883 24.58C76.7123 25.252 75.9843 25.772 75.1042 26.14C74.2403 26.492 73.2483 26.668 72.1282 26.668ZM84.1116 26.5L79.4076 13.684H82.2396L86.2716 24.988H84.9276L89.1516 13.684H91.6716L95.7756 24.988H94.4556L98.6076 13.684H101.272L96.5436 26.5H93.6636L89.9196 16.492H90.8076L86.9916 26.5H84.1116ZM109.487 26.668C108.063 26.668 106.815 26.388 105.743 25.828C104.687 25.252 103.863 24.468 103.271 23.476C102.695 22.484 102.407 21.356 102.407 20.092C102.407 18.812 102.687 17.684 103.247 16.708C103.823 15.716 104.607 14.94 105.599 14.38C106.607 13.82 107.751 13.54 109.031 13.54C110.279 13.54 111.391 13.812 112.367 14.356C113.343 14.9 114.111 15.668 114.671 16.66C115.231 17.652 115.511 18.82 115.511 20.164C115.511 20.292 115.503 20.436 115.487 20.596C115.487 20.756 115.479 20.908 115.463 21.052H104.783V19.06H113.879L112.703 19.684C112.719 18.948 112.567 18.3 112.247 17.74C111.927 17.18 111.487 16.74 110.927 16.42C110.383 16.1 109.751 15.94 109.031 15.94C108.295 15.94 107.647 16.1 107.087 16.42C106.543 16.74 106.111 17.188 105.791 17.764C105.487 18.324 105.335 18.988 105.335 19.756V20.236C105.335 21.004 105.511 21.684 105.863 22.276C106.215 22.868 106.711 23.324 107.351 23.644C107.991 23.964 108.727 24.124 109.559 24.124C110.279 24.124 110.927 24.012 111.503 23.788C112.079 23.564 112.591 23.212 113.039 22.732L114.647 24.58C114.071 25.252 113.343 25.772 112.463 26.14C111.599 26.492 110.607 26.668 109.487 26.668ZM118.872 26.5V8.692H121.872V26.5H118.872ZM130.25 26.668C129.178 26.668 128.146 26.532 127.154 26.26C126.178 25.972 125.402 25.628 124.826 25.228L125.978 22.948C126.554 23.316 127.242 23.62 128.042 23.86C128.842 24.1 129.642 24.22 130.442 24.22C131.386 24.22 132.066 24.092 132.482 23.836C132.914 23.58 133.13 23.236 133.13 22.804C133.13 22.452 132.986 22.188 132.698 22.012C132.41 21.82 132.034 21.676 131.57 21.58C131.106 21.484 130.586 21.396 130.01 21.316C129.45 21.236 128.882 21.132 128.306 21.004C127.746 20.86 127.234 20.66 126.77 20.404C126.306 20.132 125.93 19.772 125.642 19.324C125.354 18.876 125.21 18.284 125.21 17.548C125.21 16.732 125.442 16.028 125.906 15.436C126.37 14.828 127.018 14.364 127.85 14.044C128.698 13.708 129.698 13.54 130.85 13.54C131.714 13.54 132.586 13.636 133.466 13.828C134.346 14.02 135.074 14.292 135.65 14.644L134.498 16.924C133.89 16.556 133.274 16.308 132.65 16.18C132.042 16.036 131.434 15.964 130.826 15.964C129.914 15.964 129.234 16.1 128.786 16.372C128.354 16.644 128.138 16.988 128.138 17.404C128.138 17.788 128.282 18.076 128.57 18.268C128.858 18.46 129.234 18.612 129.698 18.724C130.162 18.836 130.674 18.932 131.234 19.012C131.81 19.076 132.378 19.18 132.938 19.324C133.498 19.468 134.01 19.668 134.474 19.924C134.954 20.164 135.338 20.508 135.626 20.956C135.914 21.404 136.058 21.988 136.058 22.708C136.058 23.508 135.818 24.204 135.338 24.796C134.874 25.388 134.21 25.852 133.346 26.188C132.482 26.508 131.45 26.668 130.25 26.668ZM145.001 26.668C143.657 26.668 142.457 26.388 141.401 25.828C140.361 25.252 139.545 24.468 138.953 23.476C138.361 22.484 138.065 21.356 138.065 20.092C138.065 18.812 138.361 17.684 138.953 16.708C139.545 15.716 140.361 14.94 141.401 14.38C142.457 13.82 143.657 13.54 145.001 13.54C146.249 13.54 147.345 13.796 148.289 14.308C149.249 14.804 149.977 15.54 150.473 16.516L148.169 17.86C147.785 17.252 147.313 16.804 146.753 16.516C146.209 16.228 145.617 16.084 144.977 16.084C144.241 16.084 143.577 16.244 142.985 16.564C142.393 16.884 141.929 17.348 141.593 17.956C141.257 18.548 141.089 19.26 141.089 20.092C141.089 20.924 141.257 21.644 141.593 22.252C141.929 22.844 142.393 23.3 142.985 23.62C143.577 23.94 144.241 24.1 144.977 24.1C145.617 24.1 146.209 23.956 146.753 23.668C147.313 23.38 147.785 22.932 148.169 22.324L150.473 23.668C149.977 24.628 149.249 25.372 148.289 25.9C147.345 26.412 146.249 26.668 145.001 26.668ZM161.443 26.5V23.908L161.275 23.356V18.82C161.275 17.94 161.011 17.26 160.483 16.78C159.955 16.284 159.155 16.036 158.083 16.036C157.363 16.036 156.651 16.148 155.947 16.372C155.259 16.596 154.675 16.908 154.195 17.308L153.019 15.124C153.707 14.596 154.523 14.204 155.467 13.948C156.427 13.676 157.419 13.54 158.443 13.54C160.299 13.54 161.731 13.988 162.739 14.884C163.763 15.764 164.275 17.132 164.275 18.988V26.5H161.443ZM157.411 26.668C156.451 26.668 155.611 26.508 154.891 26.188C154.171 25.852 153.611 25.396 153.211 24.82C152.827 24.228 152.635 23.564 152.635 22.828C152.635 22.108 152.803 21.46 153.139 20.884C153.491 20.308 154.059 19.852 154.843 19.516C155.627 19.18 156.667 19.012 157.963 19.012H161.683V21.004H158.179C157.155 21.004 156.467 21.172 156.115 21.508C155.763 21.828 155.587 22.228 155.587 22.708C155.587 23.252 155.803 23.684 156.235 24.004C156.667 24.324 157.267 24.484 158.035 24.484C158.771 24.484 159.427 24.316 160.003 23.98C160.595 23.644 161.019 23.148 161.275 22.492L161.779 24.292C161.491 25.044 160.971 25.628 160.219 26.044C159.483 26.46 158.547 26.668 157.411 26.668ZM175.709 26.668C174.669 26.668 173.717 26.428 172.853 25.948C172.005 25.468 171.325 24.748 170.813 23.788C170.317 22.812 170.069 21.58 170.069 20.092C170.069 18.588 170.309 17.356 170.789 16.396C171.285 15.436 171.957 14.724 172.805 14.26C173.653 13.78 174.621 13.54 175.709 13.54C176.973 13.54 178.085 13.812 179.045 14.356C180.021 14.9 180.789 15.66 181.349 16.636C181.925 17.612 182.213 18.764 182.213 20.092C182.213 21.42 181.925 22.58 181.349 23.572C180.789 24.548 180.021 25.308 179.045 25.852C178.085 26.396 176.973 26.668 175.709 26.668ZM168.605 31.156V13.684H171.461V16.708L171.365 20.116L171.605 23.524V31.156H168.605ZM175.373 24.1C176.093 24.1 176.733 23.94 177.293 23.62C177.869 23.3 178.325 22.836 178.661 22.228C178.997 21.62 179.165 20.908 179.165 20.092C179.165 19.26 178.997 18.548 178.661 17.956C178.325 17.348 177.869 16.884 177.293 16.564C176.733 16.244 176.093 16.084 175.373 16.084C174.653 16.084 174.005 16.244 173.429 16.564C172.853 16.884 172.397 17.348 172.061 17.956C171.725 18.548 171.557 19.26 171.557 20.092C171.557 20.908 171.725 21.62 172.061 22.228C172.397 22.836 172.853 23.3 173.429 23.62C174.005 23.94 174.653 24.1 175.373 24.1ZM191.562 26.668C190.138 26.668 188.89 26.388 187.818 25.828C186.762 25.252 185.938 24.468 185.346 23.476C184.77 22.484 184.482 21.356 184.482 20.092C184.482 18.812 184.762 17.684 185.322 16.708C185.898 15.716 186.682 14.94 187.674 14.38C188.682 13.82 189.826 13.54 191.106 13.54C192.354 13.54 193.466 13.812 194.442 14.356C195.418 14.9 196.186 15.668 196.746 16.66C197.306 17.652 197.586 18.82 197.586 20.164C197.586 20.292 197.578 20.436 197.562 20.596C197.562 20.756 197.554 20.908 197.538 21.052H186.858V19.06H195.954L194.778 19.684C194.794 18.948 194.642 18.3 194.322 17.74C194.002 17.18 193.562 16.74 193.002 16.42C192.458 16.1 191.826 15.94 191.106 15.94C190.37 15.94 189.722 16.1 189.162 16.42C188.618 16.74 188.186 17.188 187.866 17.764C187.562 18.324 187.41 18.988 187.41 19.756V20.236C187.41 21.004 187.586 21.684 187.938 22.276C188.29 22.868 188.786 23.324 189.426 23.644C190.066 23.964 190.802 24.124 191.634 24.124C192.354 24.124 193.002 24.012 193.578 23.788C194.154 23.564 194.666 23.212 195.114 22.732L196.722 24.58C196.146 25.252 195.418 25.772 194.538 26.14C193.674 26.492 192.682 26.668 191.562 26.668Z" fill="#DF617F"/>
<defs>
<clipPath id="clip0_50_212">
<rect width="41" height="36" fill="white"/>
</clipPath>
</defs>
</svg>
