<svg width="30" height="30" viewBox="0 0 30 30" fill="none" xmlns="http://www.w3.org/2000/svg">
<path fill-rule="evenodd" clip-rule="evenodd" d="M30 15C30 23.2843 23.2843 30 15 30C6.71575 30 0 23.2843 0 15C0 6.71575 6.71575 0 15 0C23.2843 0 30 6.71575 30 15ZM10.0447 13.6259C8.54206 14.282 6.99819 14.9561 5.58641 15.7337C4.84923 16.2735 5.82899 16.6553 6.74819 17.0134C6.89431 17.0704 7.03888 17.1267 7.17481 17.1829C7.28794 17.2178 7.40294 17.2544 7.5195 17.2915C8.54181 17.6172 9.68169 17.9804 10.6742 17.4341C12.3046 16.4975 13.8431 15.4147 15.3806 14.3328C15.8843 13.9783 16.3878 13.6239 16.8944 13.2748C16.9182 13.2596 16.9449 13.2422 16.9743 13.2233C17.4058 12.9435 18.3765 12.3143 18.0174 13.1813C17.1684 14.1098 16.259 14.9317 15.3447 15.7581C14.7284 16.3151 14.1099 16.8741 13.5062 17.4691C12.9804 17.8963 12.4343 18.7555 13.0231 19.3538C14.3793 20.3032 15.7567 21.2296 17.1333 22.1554C17.5812 22.4567 18.0291 22.7579 18.4761 23.0599C19.2338 23.6648 20.4178 23.1755 20.5844 22.2303C20.6584 21.7955 20.7328 21.3607 20.8072 20.9259C21.2182 18.523 21.6293 16.1192 21.9925 13.7084C22.0419 13.3302 22.0978 12.9521 22.1538 12.5738C22.2895 11.6569 22.4254 10.7388 22.4678 9.81694C22.3584 8.89694 21.2429 9.09925 20.6222 9.30612C17.4314 10.5203 14.2726 11.8244 11.1262 13.1515C10.7697 13.3094 10.4084 13.4671 10.0447 13.6259Z" fill="white"/>
</svg>
