<svg width="41" height="36" viewBox="0 0 41 36" fill="none" xmlns="http://www.w3.org/2000/svg">
<path d="M14.1639 3.99846L20.9998 11.2641L27.8358 3.99846H14.1639ZM30.9921 6.11566L25.3358 12.1235H35.414L30.9921 6.11566ZM34.8983 15.8735H20.9998H7.10132L20.9998 31.2095L34.8983 15.8735ZM6.58569 12.1235H16.6639L11.0076 6.11566L6.58569 12.1235ZM40.5155 15.2563L22.3905 35.2564C22.0389 35.6471 21.5311 35.8736 20.9998 35.8736C20.4686 35.8736 19.9686 35.6471 19.6092 35.2564L1.4841 15.2563C0.882536 14.5923 0.835661 13.6001 1.36691 12.8813L10.117 1.00626C10.4685 0.529695 11.031 0.240631 11.6248 0.240631H30.3749C30.9686 0.240631 31.5311 0.521883 31.8827 1.00626L40.6327 12.8813C41.164 13.6001 41.1093 14.5923 40.5155 15.2563Z" fill="#DF617F"/>
</svg>
